<?xml version="1.0" encoding="UTF-8"?>
<!DOCTYPE svg PUBLIC "-//W3C//DTD SVG 1.1//EN" "http://www.w3.org/Graphics/SVG/1.1/DTD/svg11.dtd">
<svg xmlns="http://www.w3.org/2000/svg" version="1.1" width="1000px" height="1000px" style="shape-rendering:geometricPrecision; text-rendering:geometricPrecision; image-rendering:optimizeQuality; fill-rule:evenodd; clip-rule:evenodd" xmlns:xlink="http://www.w3.org/1999/xlink">
<g><path style="opacity:0.982" fill="#8deae1" d="M 482.5,47.5 C 483.332,63.995 483.832,80.6616 484,97.5C 484.5,164.499 484.667,231.499 484.5,298.5C 405.9,307.642 349.4,347.642 315,418.5C 305.577,439.857 300.077,462.19 298.5,485.5C 218.499,485.667 138.499,485.5 58.5,485C 74.4207,478.471 90.4207,472.137 106.5,466C 111.242,463.88 115.742,461.38 120,458.5C 137.524,328.759 202.358,230.925 314.5,165C 358.439,141.521 405.106,126.354 454.5,119.5C 464.958,95.9198 474.292,71.9198 482.5,47.5 Z"/></g>
<g><path style="opacity:0.982" fill="#597583" d="M 513.5,47.5 C 523.661,71.2846 533.661,95.2846 543.5,119.5C 681.942,140.841 782.442,213.841 845,338.5C 862.301,376.74 873.301,416.74 878,458.5C 885.603,462.718 893.436,466.551 901.5,470C 914.611,474.722 927.611,479.722 940.5,485C 860.501,485.5 780.501,485.667 700.5,485.5C 691.425,405.63 650.758,348.463 578.5,314C 557.701,305.217 536.035,300.05 513.5,298.5C 513.5,214.833 513.5,131.167 513.5,47.5 Z"/></g>
<g><path style="opacity:0.963" fill="#597583" d="M 492.5,359.5 C 533.905,358.347 569.071,372.347 598,401.5C 620.994,429.464 629.66,461.464 624,497.5C 620.59,507.244 614.09,514.077 604.5,518C 599.246,519.647 593.913,520.98 588.5,522C 539.508,523.224 490.508,523.724 441.5,523.5C 443.06,545.789 452.393,563.955 469.5,578C 494.954,591.522 519.62,590.189 543.5,574C 554.833,564 566.167,554 577.5,544C 592.589,536.619 606.089,538.786 618,550.5C 624.52,564.685 623.52,578.352 615,591.5C 597.227,616.655 573.061,632.155 542.5,638C 500.608,647.612 460.608,642.612 422.5,623C 391.508,603.628 372.675,575.794 366,539.5C 357.339,497.118 363.006,456.784 383,418.5C 399.138,393.033 421.638,375.866 450.5,367C 464.433,363.291 478.433,360.791 492.5,359.5 Z M 487.5,417.5 C 513.56,414.942 532.393,425.275 544,448.5C 547.111,456.942 549.277,465.609 550.5,474.5C 514.5,474.5 478.5,474.5 442.5,474.5C 444.147,452.361 454.147,435.195 472.5,423C 477.571,421.035 482.571,419.202 487.5,417.5 Z"/></g>
<g><path style="opacity:0.982" fill="#597583" d="M 108.5,514.5 C 171.833,514.5 235.167,514.5 298.5,514.5C 309.559,604.382 357.892,663.882 443.5,693C 456.952,696.724 470.619,699.224 484.5,700.5C 484.833,783.836 484.5,867.169 483.5,950.5C 474.392,926.283 464.725,902.283 454.5,878.5C 312.155,856.267 210.322,780.267 149,650.5C 133.863,614.952 124.196,577.952 120,539.5C 101.574,529.912 82.4074,522.079 62.5,516C 78.0055,515.831 93.3388,515.331 108.5,514.5 Z"/></g>
<g><path style="opacity:0.982" fill="#8deae1" d="M 700.5,514.5 C 779.167,514.333 857.834,514.5 936.5,515C 916.448,521.797 896.948,529.963 878,539.5C 858.444,679.892 785.611,781.725 659.5,845C 622.464,861.733 583.798,872.9 543.5,878.5C 533.275,902.283 523.608,926.283 514.5,950.5C 513.5,867.169 513.167,783.836 513.5,700.5C 593.37,691.425 650.537,650.758 685,578.5C 693.623,558.009 698.789,536.676 700.5,514.5 Z"/></g>
</svg>