<?xml version="1.0" encoding="UTF-8"?>
<!DOCTYPE svg PUBLIC "-//W3C//DTD SVG 1.1//EN" "http://www.w3.org/Graphics/SVG/1.1/DTD/svg11.dtd">
<svg xmlns="http://www.w3.org/2000/svg" version="1.1" width="3088px" height="808px" style="shape-rendering:geometricPrecision; text-rendering:geometricPrecision; image-rendering:optimizeQuality; fill-rule:evenodd; clip-rule:evenodd" xmlns:xlink="http://www.w3.org/1999/xlink">
<g><path style="opacity:0.976" fill="#8deae1" d="M 364.5,57.5 C 366.496,121.491 367.163,185.825 366.5,250.5C 296.468,258.761 250.635,296.428 229,363.5C 226.354,373.334 224.854,383.334 224.5,393.5C 163.166,393.667 101.832,393.5 40.5,393C 53.2812,387.217 66.2812,381.883 79.5,377C 82.4326,375.729 85.0993,374.062 87.5,372C 99.3281,279.53 143.995,207.53 221.5,156C 258.878,132.595 299.545,118.429 343.5,113.5C 351.065,95.039 358.065,76.3723 364.5,57.5 Z"/></g>
<g><path style="opacity:0.977" fill="#597583" d="M 387.5,57.5 C 388.496,57.4142 389.329,57.7476 390,58.5C 397.186,76.8651 404.353,95.1984 411.5,113.5C 520.8,129.867 598.967,187.867 646,287.5C 657.359,314.787 664.859,343.12 668.5,372.5C 671.673,374.587 675.006,376.421 678.5,378C 690.987,382.748 703.32,387.748 715.5,393C 654.168,393.5 592.834,393.667 531.5,393.5C 522.39,319.226 481.723,272.392 409.5,253C 402.553,251.691 395.553,250.858 388.5,250.5C 388.823,186.137 388.489,121.804 387.5,57.5 Z"/></g>
<g><path style="opacity:0.962" fill="#597583" d="M 1472.5,149.5 C 1496.5,149.5 1520.5,149.5 1544.5,149.5C 1544.73,151.433 1545.56,153.1 1547,154.5C 1547.67,171.833 1547.67,189.167 1547,206.5C 1545.16,208.159 1543.99,210.159 1543.5,212.5C 1520.16,212.833 1496.82,212.5 1473.5,211.5C 1472.24,209.321 1470.74,207.321 1469,205.5C 1468.33,188.833 1468.33,172.167 1469,155.5C 1470.44,153.609 1471.61,151.609 1472.5,149.5 Z"/></g>
<g><path style="opacity:0.986" fill="#597583" d="M 748.5,234.5 C 806.501,234.333 864.501,234.5 922.5,235C 923.667,236.167 924.833,237.333 926,238.5C 926.667,250.5 926.667,262.5 926,274.5C 924.833,275.667 923.667,276.833 922.5,278C 889.502,278.5 856.502,278.667 823.5,278.5C 823.5,309.833 823.5,341.167 823.5,372.5C 845.169,372.333 866.836,372.5 888.5,373C 889.667,374.167 890.833,375.333 892,376.5C 892.667,388.5 892.667,400.5 892,412.5C 890.833,413.667 889.667,414.833 888.5,416C 866.836,416.5 845.169,416.667 823.5,416.5C 823.5,447.5 823.5,478.5 823.5,509.5C 856.502,509.333 889.502,509.5 922.5,510C 923.667,511.167 924.833,512.333 926,513.5C 926.667,525.5 926.667,537.5 926,549.5C 924.833,550.667 923.667,551.833 922.5,553C 864.5,553.667 806.5,553.667 748.5,553C 747.333,551.833 746.167,550.667 745,549.5C 744.333,445.833 744.333,342.167 745,238.5C 746.376,237.295 747.542,235.962 748.5,234.5 Z"/></g>
<g><path style="opacity:0.988" fill="#597583" d="M 1587.5,234.5 C 1636.83,234.333 1686.17,234.5 1735.5,235C 1770.43,241.267 1791.6,261.767 1799,296.5C 1799.67,315.833 1799.67,335.167 1799,354.5C 1791.61,389.227 1770.44,409.727 1735.5,416C 1711.17,416.5 1686.84,416.667 1662.5,416.5C 1662.67,460.835 1662.5,505.168 1662,549.5C 1660.83,550.667 1659.67,551.833 1658.5,553C 1634.83,553.667 1611.17,553.667 1587.5,553C 1586.33,551.833 1585.17,550.667 1584,549.5C 1583.33,445.833 1583.33,342.167 1584,238.5C 1585.38,237.295 1586.54,235.962 1587.5,234.5 Z M 1662.5,278.5 C 1673.84,278.333 1685.17,278.5 1696.5,279C 1707.93,281.786 1715.76,288.619 1720,299.5C 1722,316.833 1722,334.167 1720,351.5C 1715.55,362.293 1707.71,369.126 1696.5,372C 1685.17,372.5 1673.84,372.667 1662.5,372.5C 1662.5,341.167 1662.5,309.833 1662.5,278.5 Z"/></g>
<g><path style="opacity:0.992" fill="#597583" d="M 2312.5,234.5 C 2335.84,234.333 2359.17,234.5 2382.5,235C 2383.67,236.167 2384.83,237.333 2386,238.5C 2386.5,260.164 2386.67,281.831 2386.5,303.5C 2396.84,303.334 2407.17,303.5 2417.5,304C 2418.67,305.167 2419.83,306.333 2421,307.5C 2421.67,319.5 2421.67,331.5 2421,343.5C 2419.83,344.667 2418.67,345.833 2417.5,347C 2407.17,347.5 2396.84,347.666 2386.5,347.5C 2386.03,394.533 2386.53,441.533 2388,488.5C 2391.14,498.307 2397.64,504.807 2407.5,508C 2412.81,508.111 2417.31,509.944 2421,513.5C 2421.67,525.5 2421.67,537.5 2421,549.5C 2419.83,550.667 2418.67,551.833 2417.5,553C 2400.46,553.91 2383.46,553.577 2366.5,552C 2334.25,543.751 2315.08,523.251 2309,490.5C 2308.5,442.834 2308.33,395.168 2308.5,347.5C 2298.16,347.666 2287.83,347.5 2277.5,347C 2276.33,345.833 2275.17,344.667 2274,343.5C 2273.33,331.5 2273.33,319.5 2274,307.5C 2275.17,306.333 2276.33,305.167 2277.5,304C 2287.83,303.5 2298.16,303.334 2308.5,303.5C 2308.33,281.831 2308.5,260.164 2309,238.5C 2310.38,237.295 2311.54,235.962 2312.5,234.5 Z"/></g>
<g><path style="opacity:0.975" fill="#597583" d="M 2461.5,234.5 C 2485.17,234.333 2508.84,234.5 2532.5,235C 2533.67,236.167 2534.83,237.333 2536,238.5C 2536.67,250.5 2536.67,262.5 2536,274.5C 2534.83,275.667 2533.67,276.833 2532.5,278C 2508.83,278.667 2485.17,278.667 2461.5,278C 2460.33,276.833 2459.17,275.667 2458,274.5C 2457.33,262.5 2457.33,250.5 2458,238.5C 2459.38,237.295 2460.54,235.962 2461.5,234.5 Z"/></g>
<g><path style="opacity:0.986" fill="#597583" d="M 1473.5,246.5 C 1496.84,246.333 1520.17,246.5 1543.5,247C 1544.79,248.41 1545.95,249.91 1547,251.5C 1547.67,365.833 1547.67,480.167 1547,594.5C 1546.36,595.966 1545.53,597.3 1544.5,598.5C 1520.5,599.833 1496.5,599.833 1472.5,598.5C 1471.14,596.972 1469.97,595.305 1469,593.5C 1468.17,479.499 1468.33,365.499 1469.5,251.5C 1470.58,249.539 1471.91,247.872 1473.5,246.5 Z"/></g>
<g><path style="opacity:0.953" fill="#597583" d="M 365.5,296.5 C 393.903,294.251 419.57,301.417 442.5,318C 470.989,342.809 480.156,373.309 470,409.5C 464.228,415.937 457.062,419.771 448.5,421C 410.181,422.36 371.848,422.86 333.5,422.5C 339.879,463.356 362.879,477.856 402.5,466C 414.662,458.513 425.662,449.513 435.5,439C 447.938,431.796 459.105,433.296 469,443.5C 474.245,456.623 472.245,468.623 463,479.5C 445.326,499.972 422.826,511.139 395.5,513C 362.599,517.228 332.932,509.561 306.5,490C 288.45,473.403 277.616,452.903 274,428.5C 268.703,396.039 274.37,365.706 291,337.5C 309.795,313.016 334.628,299.349 365.5,296.5 Z M 367.5,341.5 C 397.152,340.478 413.485,354.811 416.5,384.5C 389.167,384.5 361.833,384.5 334.5,384.5C 336.217,362.811 347.217,348.477 367.5,341.5 Z"/></g>
<g><path style="opacity:0.992" fill="#597583" d="M 1028.5,303.5 C 1077.5,303.333 1126.5,303.5 1175.5,304C 1176.67,305.167 1177.83,306.333 1179,307.5C 1179.67,411.167 1179.67,514.833 1179,618.5C 1177.83,619.667 1176.67,620.833 1175.5,622C 1151.83,622.667 1128.17,622.667 1104.5,622C 1103.33,620.833 1102.17,619.667 1101,618.5C 1101.58,593.185 1101.58,567.851 1101,542.5C 1095.59,547.956 1089.09,551.456 1081.5,553C 1060.8,553.928 1040.13,553.595 1019.5,552C 986.333,541.505 967.833,519.005 964,484.5C 963.333,447.167 963.333,409.833 964,372.5C 969.22,334.117 990.72,311.117 1028.5,303.5 Z M 1066.5,347.5 C 1078.17,347.5 1089.83,347.5 1101.5,347.5C 1101.67,392.835 1101.5,438.168 1101,483.5C 1096.33,502.758 1084.16,510.925 1064.5,508C 1053.13,503.966 1045.96,496.132 1043,484.5C 1042.33,446.833 1042.33,409.167 1043,371.5C 1046.35,358.985 1054.18,350.985 1066.5,347.5 Z"/></g>
<g><path style="opacity:0.991" fill="#597583" d="M 1219.5,303.5 C 1243.17,303.333 1266.84,303.5 1290.5,304C 1291.67,305.167 1292.83,306.333 1294,307.5C 1294.33,366.833 1294.67,426.167 1295,485.5C 1301.69,505.431 1315.19,512.597 1335.5,507C 1345.13,502.029 1350.97,494.195 1353,483.5C 1353.33,424.833 1353.67,366.167 1354,307.5C 1355.17,306.333 1356.33,305.167 1357.5,304C 1380.83,303.333 1404.17,303.333 1427.5,304C 1428.67,305.167 1429.83,306.333 1431,307.5C 1431.67,388.167 1431.67,468.833 1431,549.5C 1429.83,550.667 1428.67,551.833 1427.5,553C 1404.17,553.667 1380.83,553.667 1357.5,553C 1354.05,550.031 1352.55,546.198 1353,541.5C 1347.48,548.345 1340.31,552.178 1331.5,553C 1314.5,553.667 1297.5,553.667 1280.5,553C 1251.59,548.297 1231.43,532.463 1220,505.5C 1217.77,498.674 1216.43,491.674 1216,484.5C 1215.33,425.5 1215.33,366.5 1216,307.5C 1217.38,306.295 1218.54,304.962 1219.5,303.5 Z"/></g>
<g><path style="opacity:0.989" fill="#597583" d="M 1901.5,303.5 C 1930.5,303.333 1959.5,303.5 1988.5,304C 2023.42,310.258 2044.59,330.758 2052,365.5C 2052.97,409.532 2052.63,453.532 2051,497.5C 2041.72,529.049 2020.89,547.549 1988.5,553C 1957.14,553.946 1925.8,553.613 1894.5,552C 1860.18,542.348 1841.01,519.848 1837,484.5C 1836.33,447.167 1836.33,409.833 1837,372.5C 1839.72,342.789 1854.55,321.622 1881.5,309C 1888.13,306.513 1894.8,304.679 1901.5,303.5 Z M 1940.5,347.5 C 1958.53,347.362 1969.69,356.028 1974,373.5C 1974.97,411.872 1974.64,450.205 1973,488.5C 1964.4,506.887 1950.57,512.72 1931.5,506C 1923.71,501.205 1918.55,494.372 1916,485.5C 1915.33,447.5 1915.33,409.5 1916,371.5C 1919.45,358.55 1927.62,350.55 1940.5,347.5 Z"/></g>
<g><path style="opacity:0.986" fill="#597583" d="M 2083.5,303.5 C 2107.17,303.333 2130.84,303.5 2154.5,304C 2155.67,305.167 2156.83,306.333 2158,307.5C 2158.33,317.833 2158.67,328.167 2159,338.5C 2170.41,317.87 2187.91,306.37 2211.5,304C 2226.83,303.333 2242.17,303.333 2257.5,304C 2258.67,305.167 2259.83,306.333 2261,307.5C 2261.67,331.167 2261.67,354.833 2261,378.5C 2259.83,379.667 2258.67,380.833 2257.5,382C 2232.5,382.333 2207.5,382.667 2182.5,383C 2169.97,386.193 2162.14,394.027 2159,406.5C 2158.67,454.167 2158.33,501.833 2158,549.5C 2156.83,550.667 2155.67,551.833 2154.5,553C 2130.83,553.667 2107.17,553.667 2083.5,553C 2082.33,551.833 2081.17,550.667 2080,549.5C 2079.33,468.833 2079.33,388.167 2080,307.5C 2081.38,306.295 2082.54,304.962 2083.5,303.5 Z"/></g>
<g><path style="opacity:0.986" fill="#597583" d="M 2461.5,303.5 C 2485.17,303.333 2508.84,303.5 2532.5,304C 2533.67,305.167 2534.83,306.333 2536,307.5C 2536.67,388.167 2536.67,468.833 2536,549.5C 2534.83,550.667 2533.67,551.833 2532.5,553C 2508.83,553.667 2485.17,553.667 2461.5,553C 2460.33,551.833 2459.17,550.667 2458,549.5C 2457.33,468.833 2457.33,388.167 2458,307.5C 2459.38,306.295 2460.54,304.962 2461.5,303.5 Z"/></g>
<g><path style="opacity:0.989" fill="#597583" d="M 2637.5,303.5 C 2666.5,303.333 2695.5,303.5 2724.5,304C 2759.42,310.258 2780.59,330.758 2788,365.5C 2788.97,409.532 2788.63,453.532 2787,497.5C 2777.72,529.049 2756.89,547.549 2724.5,553C 2693.14,553.946 2661.8,553.613 2630.5,552C 2596.18,542.348 2577.01,519.848 2573,484.5C 2572.33,447.167 2572.33,409.833 2573,372.5C 2575.72,342.789 2590.55,321.622 2617.5,309C 2624.13,306.513 2630.8,304.679 2637.5,303.5 Z M 2676.5,347.5 C 2694.53,347.362 2705.69,356.028 2710,373.5C 2710.97,411.872 2710.64,450.205 2709,488.5C 2700.4,506.887 2686.57,512.72 2667.5,506C 2659.71,501.205 2654.55,494.372 2652,485.5C 2651.33,447.5 2651.33,409.5 2652,371.5C 2655.45,358.55 2663.62,350.55 2676.5,347.5 Z"/></g>
<g><path style="opacity:0.99" fill="#597583" d="M 2829.5,303.5 C 2853.17,303.333 2876.84,303.5 2900.5,304C 2903.89,306.619 2905.39,310.119 2905,314.5C 2910.89,308.474 2918.05,304.974 2926.5,304C 2943.5,303.333 2960.5,303.333 2977.5,304C 3012.42,310.258 3033.59,330.758 3041,365.5C 3041.67,426.833 3041.67,488.167 3041,549.5C 3039.83,550.667 3038.67,551.833 3037.5,553C 3014.17,553.667 2990.83,553.667 2967.5,553C 2966.33,551.833 2965.17,550.667 2964,549.5C 2963.67,490.833 2963.33,432.167 2963,373.5C 2961.03,362.856 2955.2,355.022 2945.5,350C 2925.18,344.411 2911.68,351.578 2905,371.5C 2904.67,430.833 2904.33,490.167 2904,549.5C 2902.83,550.667 2901.67,551.833 2900.5,553C 2876.83,553.667 2853.17,553.667 2829.5,553C 2828.33,551.833 2827.17,550.667 2826,549.5C 2825.33,468.833 2825.33,388.167 2826,307.5C 2827.38,306.295 2828.54,304.962 2829.5,303.5 Z"/></g>
<g><path style="opacity:0.975" fill="#597583" d="M 110.5,414.5 C 148.5,414.5 186.5,414.5 224.5,414.5C 230.76,474.906 261.093,518.406 315.5,545C 331.854,551.838 348.854,556.005 366.5,557.5C 366.833,621.503 366.5,685.503 365.5,749.5C 358.152,730.81 350.819,712.143 343.5,693.5C 249.469,680.761 177.303,634.428 127,554.5C 104.789,517.533 91.6218,477.7 87.5,435C 73.2467,427.967 58.58,421.801 43.5,416.5C 65.9963,415.833 88.3297,415.167 110.5,414.5 Z"/></g>
<g><path style="opacity:0.975" fill="#8deae1" d="M 531.5,414.5 C 592.016,414.396 652.349,414.729 712.5,415.5C 697.674,421.241 683.008,427.574 668.5,434.5C 651.381,549.415 589.714,629.915 483.5,676C 460.315,685.204 436.315,691.037 411.5,693.5C 404.175,712.153 396.842,730.82 389.5,749.5C 388.5,685.503 388.167,621.503 388.5,557.5C 450.067,550.738 493.901,519.405 520,463.5C 526.507,447.805 530.34,431.472 531.5,414.5 Z"/></g>
</svg>
