<?xml version="1.0" encoding="UTF-8"?>
<!DOCTYPE svg PUBLIC "-//W3C//DTD SVG 1.1//EN" "http://www.w3.org/Graphics/SVG/1.1/DTD/svg11.dtd">
<svg xmlns="http://www.w3.org/2000/svg" version="1.1" width="3940px" height="1000px" style="shape-rendering:geometricPrecision; text-rendering:geometricPrecision; image-rendering:optimizeQuality; fill-rule:evenodd; clip-rule:evenodd" xmlns:xlink="http://www.w3.org/1999/xlink">
<g><path style="opacity:0.982" fill="#fefffe" d="M 482.5,47.5 C 483.332,63.995 483.832,80.6616 484,97.5C 484.5,164.499 484.667,231.499 484.5,298.5C 405.9,307.642 349.4,347.642 315,418.5C 305.577,439.857 300.077,462.19 298.5,485.5C 218.499,485.667 138.499,485.5 58.5,485C 74.4207,478.471 90.4207,472.137 106.5,466C 111.242,463.88 115.742,461.38 120,458.5C 137.524,328.759 202.358,230.925 314.5,165C 358.439,141.521 405.106,126.354 454.5,119.5C 464.958,95.9198 474.292,71.9198 482.5,47.5 Z"/></g>
<g><path style="opacity:0.982" fill="#fefffe" d="M 513.5,47.5 C 523.661,71.2846 533.661,95.2846 543.5,119.5C 681.942,140.841 782.442,213.841 845,338.5C 862.301,376.74 873.301,416.74 878,458.5C 885.603,462.718 893.436,466.551 901.5,470C 914.611,474.722 927.611,479.722 940.5,485C 860.501,485.5 780.501,485.667 700.5,485.5C 691.425,405.63 650.758,348.463 578.5,314C 557.701,305.217 536.035,300.05 513.5,298.5C 513.5,214.833 513.5,131.167 513.5,47.5 Z"/></g>
<g><path style="opacity:0.927" fill="#fefffe" d="M 1885.5,184.5 C 1915.83,184.5 1946.17,184.5 1976.5,184.5C 1976.5,186.842 1977.34,188.842 1979,190.5C 1979.67,212.167 1979.67,233.833 1979,255.5C 1977.04,257.911 1975.21,260.411 1973.5,263C 1946.83,263.397 1920.16,263.063 1893.5,262C 1890.91,261.774 1888.41,261.274 1886,260.5C 1884.67,258.5 1883.33,256.5 1882,254.5C 1880.02,233.167 1880.02,211.834 1882,190.5C 1883.43,188.636 1884.6,186.636 1885.5,184.5 Z"/></g>
<g><path style="opacity:0.965" fill="#fefffe" d="M 989.5,289.5 C 1061.83,289.333 1134.17,289.5 1206.5,290C 1207.67,291.167 1208.83,292.333 1210,293.5C 1212,309.167 1212,324.833 1210,340.5C 1208.83,341.667 1207.67,342.833 1206.5,344C 1165.5,344.5 1124.5,344.667 1083.5,344.5C 1083.5,383.167 1083.5,421.833 1083.5,460.5C 1110.47,459.772 1137.47,459.938 1164.5,461C 1165.67,462.167 1166.83,463.333 1168,464.5C 1168.31,472.181 1168.81,479.848 1169.5,487.5C 1168.81,495.152 1168.31,502.819 1168,510.5C 1166.83,511.667 1165.67,512.833 1164.5,514C 1137.53,515.427 1110.53,515.927 1083.5,515.5C 1083.5,553.5 1083.5,591.5 1083.5,629.5C 1124.52,629.093 1165.52,629.593 1206.5,631C 1207.67,632.167 1208.83,633.333 1210,634.5C 1212,649.833 1212,665.167 1210,680.5C 1208.83,681.667 1207.67,682.833 1206.5,684C 1170.33,684.231 1134.16,684.731 1098,685.5C 1061.84,684.731 1025.67,684.231 989.5,684C 988.333,682.833 987.167,681.667 986,680.5C 984.005,551.5 984.005,422.5 986,293.5C 987.376,292.295 988.542,290.962 989.5,289.5 Z"/></g>
<g><path style="opacity:0.971" fill="#fefffe" d="M 2027.5,289.5 C 2089.5,289.333 2151.5,289.5 2213.5,290C 2258.51,299.012 2284.35,326.179 2291,371.5C 2291.89,395.191 2291.56,418.858 2290,442.5C 2280.63,481.866 2256.13,505.7 2216.5,514C 2184.85,515.394 2153.19,515.894 2121.5,515.5C 2121.25,529.018 2121.58,542.518 2122.5,556C 2121.69,597.489 2121.19,638.989 2121,680.5C 2119.83,681.667 2118.67,682.833 2117.5,684C 2102.49,684.232 2087.49,684.732 2072.5,685.5C 2057.51,684.732 2042.51,684.232 2027.5,684C 2026.33,682.833 2025.17,681.667 2024,680.5C 2023.17,551.499 2023.33,422.499 2024.5,293.5C 2025.52,292.148 2026.52,290.815 2027.5,289.5 Z M 2121.5,344.5 C 2136.2,344.223 2150.86,344.723 2165.5,346C 2178.15,349.983 2186.98,358.149 2192,370.5C 2194,391.833 2194,413.167 2192,434.5C 2186.84,447.164 2177.67,455.331 2164.5,459C 2150.18,459.803 2135.84,460.303 2121.5,460.5C 2121.5,421.833 2121.5,383.167 2121.5,344.5 Z"/></g>
<g><path style="opacity:0.972" fill="#fefffe" d="M 2924.5,289.5 C 2954.17,289.333 2983.84,289.5 3013.5,290C 3014.67,291.167 3015.83,292.333 3017,293.5C 3017.5,320.498 3017.67,347.498 3017.5,374.5C 3030.87,374.143 3044.21,374.643 3057.5,376C 3058.33,376.833 3059.17,377.667 3060,378.5C 3061.97,394.168 3061.97,409.835 3060,425.5C 3058.83,426.667 3057.67,427.833 3056.5,429C 3043.52,430.035 3030.52,430.535 3017.5,430.5C 3017.26,488.516 3018.09,546.516 3020,604.5C 3022.57,612.071 3027.07,618.237 3033.5,623C 3041.45,626.209 3049.45,629.209 3057.5,632C 3058.33,632.833 3059.17,633.667 3060,634.5C 3062,649.833 3062,665.167 3060,680.5C 3058.83,681.667 3057.67,682.833 3056.5,684C 3034.84,685.396 3013.17,685.063 2991.5,683C 2951.81,672.979 2928.31,647.813 2921,607.5C 2920.5,548.501 2920.33,489.501 2920.5,430.5C 2907.48,430.484 2894.48,429.984 2881.5,429C 2880.33,427.833 2879.17,426.667 2878,425.5C 2877.33,410.167 2877.33,394.833 2878,379.5C 2879.17,378.333 2880.33,377.167 2881.5,376C 2894.45,374.623 2907.45,374.123 2920.5,374.5C 2920.33,347.831 2920.5,321.165 2921,294.5C 2922.8,293.211 2923.97,291.544 2924.5,289.5 Z"/></g>
<g><path style="opacity:0.935" fill="#fefffe" d="M 3109.5,289.5 C 3139.17,289.333 3168.84,289.5 3198.5,290C 3200.81,291.637 3202.31,293.804 3203,296.5C 3203.95,311.235 3203.62,325.902 3202,340.5C 3200.83,341.667 3199.67,342.833 3198.5,344C 3168.83,344.667 3139.17,344.667 3109.5,344C 3108.33,342.833 3107.17,341.667 3106,340.5C 3104.02,324.831 3104.02,309.165 3106,293.5C 3107.38,292.295 3108.54,290.962 3109.5,289.5 Z"/></g>
<g><path style="opacity:0.968" fill="#fefffe" d="M 1907.5,303.5 C 1929.8,304.302 1952.14,304.802 1974.5,305C 1976.81,306.637 1978.31,308.804 1979,311.5C 1979.67,452.833 1979.67,594.167 1979,735.5C 1977.86,739.797 1975.02,741.631 1970.5,741C 1944.17,741.667 1917.83,741.667 1891.5,741C 1886.9,741.551 1883.73,739.718 1882,735.5C 1879.92,593.151 1880.26,450.818 1883,308.5C 1884.17,307.333 1885.33,306.167 1886.5,305C 1893.68,304.829 1900.68,304.329 1907.5,303.5 Z"/></g>
<g><path style="opacity:0.963" fill="#fefffe" d="M 492.5,359.5 C 533.905,358.347 569.071,372.347 598,401.5C 620.994,429.464 629.66,461.464 624,497.5C 620.59,507.244 614.09,514.077 604.5,518C 599.246,519.647 593.913,520.98 588.5,522C 539.508,523.224 490.508,523.724 441.5,523.5C 443.06,545.789 452.393,563.955 469.5,578C 494.954,591.522 519.62,590.189 543.5,574C 554.833,564 566.167,554 577.5,544C 592.589,536.619 606.089,538.786 618,550.5C 624.52,564.685 623.52,578.352 615,591.5C 597.227,616.655 573.061,632.155 542.5,638C 500.608,647.612 460.608,642.612 422.5,623C 391.508,603.628 372.675,575.794 366,539.5C 357.339,497.118 363.006,456.784 383,418.5C 399.138,393.033 421.638,375.866 450.5,367C 464.433,363.291 478.433,360.791 492.5,359.5 Z M 487.5,417.5 C 513.56,414.942 532.393,425.275 544,448.5C 547.111,456.942 549.277,465.609 550.5,474.5C 514.5,474.5 478.5,474.5 442.5,474.5C 444.147,452.361 454.147,435.195 472.5,423C 477.571,421.035 482.571,419.202 487.5,417.5 Z"/></g>
<g><path style="opacity:0.976" fill="#fefffe" d="M 1334.5,374.5 C 1396.51,374.123 1458.51,374.623 1520.5,376C 1521.33,376.833 1522.17,377.667 1523,378.5C 1525,507.833 1525,637.167 1523,766.5C 1522.17,767.333 1521.33,768.167 1520.5,769C 1490.17,770.991 1459.83,770.991 1429.5,769C 1428.67,768.167 1427.83,767.333 1427,766.5C 1426.67,735.167 1426.33,703.833 1426,672.5C 1419.92,678.291 1412.75,682.124 1404.5,684C 1377.83,685.495 1351.16,685.161 1324.5,683C 1285.41,670.575 1262.91,644.075 1257,603.5C 1256.57,578.832 1256.07,554.165 1255.5,529.5C 1256.06,505.168 1256.56,480.835 1257,456.5C 1264.56,411.776 1290.39,384.443 1334.5,374.5 Z M 1381.5,430.5 C 1396.5,430.5 1411.5,430.5 1426.5,430.5C 1426.67,486.168 1426.5,541.834 1426,597.5C 1420.24,621.799 1405.07,631.633 1380.5,627C 1367.95,622.748 1359.78,614.248 1356,601.5C 1354.01,553.5 1354.01,505.5 1356,457.5C 1360.29,444.384 1368.79,435.384 1381.5,430.5 Z"/></g>
<g><path style="opacity:0.973" fill="#fefffe" d="M 1572.5,374.5 C 1602.52,374.123 1632.52,374.623 1662.5,376C 1663.33,376.833 1664.17,377.667 1665,378.5C 1666.04,453.163 1667.04,527.83 1668,602.5C 1676.07,624.453 1691.57,632.619 1714.5,627C 1725.89,621.946 1733.39,613.446 1737,601.5C 1738.04,527.171 1739.04,452.837 1740,378.5C 1740.83,377.667 1741.67,376.833 1742.5,376C 1772.17,374.01 1801.83,374.01 1831.5,376C 1832.67,377.167 1833.83,378.333 1835,379.5C 1835.34,429.668 1835.84,479.835 1836.5,530C 1835.84,580.165 1835.34,630.332 1835,680.5C 1833.83,681.667 1832.67,682.833 1831.5,684C 1816.82,684.234 1802.15,684.734 1787.5,685.5C 1772.85,684.734 1758.18,684.234 1743.5,684C 1739.91,680.984 1737.74,677.151 1737,672.5C 1731.21,678.814 1724.04,682.648 1715.5,684C 1703.81,684.23 1692.15,684.73 1680.5,685.5C 1650.37,688.722 1623.37,681.222 1599.5,663C 1582.45,647.933 1572.28,629.1 1569,606.5C 1566.86,530.492 1567.03,454.492 1569.5,378.5C 1570.52,377.148 1571.52,375.815 1572.5,374.5 Z"/></g>
<g><path style="opacity:0.971" fill="#fefffe" d="M 2414.5,374.5 C 2452.85,374.149 2491.18,374.649 2529.5,376C 2572.15,385.317 2596.98,411.483 2604,454.5C 2604.67,493.167 2604.67,531.833 2604,570.5C 2609.44,603.476 2601.44,632.476 2580,657.5C 2565.33,671.751 2547.83,680.584 2527.5,684C 2487.49,685.576 2447.49,685.242 2407.5,683C 2365.68,671.229 2342.18,643.729 2337,600.5C 2336.33,553.167 2336.33,505.833 2337,458.5C 2343.66,412.678 2369.49,384.678 2414.5,374.5 Z M 2462.5,430.5 C 2485.07,428.916 2499.57,438.916 2506,460.5C 2507.69,508.176 2507.35,555.842 2505,603.5C 2494.08,627.031 2476.58,633.864 2452.5,624C 2444.72,618.211 2439.22,610.711 2436,601.5C 2435.33,553.833 2435.33,506.167 2436,458.5C 2439.92,444.415 2448.75,435.082 2462.5,430.5 Z"/></g>
<g><path style="opacity:0.969" fill="#fefffe" d="M 2641.5,374.5 C 2671.52,374.123 2701.52,374.623 2731.5,376C 2732.67,377.167 2733.83,378.333 2735,379.5C 2735.22,391.529 2735.89,403.529 2737,415.5C 2749.7,393.055 2768.87,379.888 2794.5,376C 2816.17,374.062 2837.84,374.062 2859.5,376C 2860.33,376.833 2861.17,377.667 2862,378.5C 2864,408.833 2864,439.167 2862,469.5C 2861.17,470.333 2860.33,471.167 2859.5,472C 2828.51,473.173 2797.51,473.84 2766.5,474C 2752.98,477.003 2743.48,484.836 2738,497.5C 2736.7,516.102 2736.04,534.768 2736,553.5C 2735.67,595.833 2735.33,638.167 2735,680.5C 2733.83,681.667 2732.67,682.833 2731.5,684C 2716.49,684.232 2701.49,684.732 2686.5,685.5C 2671.51,684.732 2656.51,684.232 2641.5,684C 2640.33,682.833 2639.17,681.667 2638,680.5C 2637.75,630.163 2637.25,579.83 2636.5,529.5C 2637.25,479.504 2637.75,429.504 2638,379.5C 2639.67,378.154 2640.84,376.487 2641.5,374.5 Z"/></g>
<g><path style="opacity:0.967" fill="#fefffe" d="M 3109.5,374.5 C 3139.52,374.123 3169.52,374.623 3199.5,376C 3200.33,376.833 3201.17,377.667 3202,378.5C 3203.62,473.489 3203.96,568.489 3203,663.5C 3202.67,669.167 3202.33,674.833 3202,680.5C 3200.83,681.667 3199.67,682.833 3198.5,684C 3183.82,684.234 3169.15,684.734 3154.5,685.5C 3139.51,684.732 3124.51,684.232 3109.5,684C 3108.33,682.833 3107.17,681.667 3106,680.5C 3104,579.833 3104,479.167 3106,378.5C 3107.38,377.295 3108.54,375.962 3109.5,374.5 Z"/></g>
<g><path style="opacity:0.972" fill="#fefffe" d="M 3325.5,374.5 C 3363.85,374.149 3402.18,374.649 3440.5,376C 3487.5,387.337 3512.33,417.17 3515,465.5C 3515.93,516.191 3515.27,566.857 3513,617.5C 3501.37,654.464 3476.54,676.631 3438.5,684C 3398.49,685.576 3358.49,685.242 3318.5,683C 3277.23,671.728 3253.73,644.895 3248,602.5C 3247.33,553.833 3247.33,505.167 3248,456.5C 3255.08,411.293 3280.91,383.96 3325.5,374.5 Z M 3373.5,430.5 C 3396.53,429.044 3411.03,439.377 3417,461.5C 3417.83,508.843 3417.5,556.176 3416,603.5C 3403.25,629.061 3384.42,634.894 3359.5,621C 3353.45,615.74 3349.28,609.24 3347,601.5C 3345.01,553.5 3345.01,505.5 3347,457.5C 3351.35,443.984 3360.18,434.984 3373.5,430.5 Z"/></g>
<g><path style="opacity:0.973" fill="#fefffe" d="M 3564.5,374.5 C 3594.52,374.123 3624.52,374.623 3654.5,376C 3657.84,378.672 3659.67,382.172 3660,386.5C 3665.92,381.289 3672.75,377.789 3680.5,376C 3704.83,374.014 3729.17,374.014 3753.5,376C 3793.14,384.309 3817.64,408.143 3827,447.5C 3828.99,525.168 3828.99,602.835 3827,680.5C 3825.83,681.667 3824.67,682.833 3823.5,684C 3808.82,684.234 3794.15,684.734 3779.5,685.5C 3764.85,684.734 3750.18,684.234 3735.5,684C 3734.33,682.833 3733.17,681.667 3732,680.5C 3731.19,607.168 3730.53,533.835 3730,460.5C 3722.47,436.15 3706.3,426.983 3681.5,433C 3670.73,438.442 3663.56,446.942 3660,458.5C 3659.18,532.499 3658.52,606.499 3658,680.5C 3656.83,681.667 3655.67,682.833 3654.5,684C 3639.49,684.232 3624.49,684.732 3609.5,685.5C 3594.51,684.732 3579.51,684.232 3564.5,684C 3563.33,682.833 3562.17,681.667 3561,680.5C 3560.33,580.167 3560.33,479.833 3561,379.5C 3562.8,378.211 3563.97,376.544 3564.5,374.5 Z"/></g>
<g><path style="opacity:0.982" fill="#fefffe" d="M 108.5,514.5 C 171.833,514.5 235.167,514.5 298.5,514.5C 309.559,604.382 357.892,663.882 443.5,693C 456.952,696.724 470.619,699.224 484.5,700.5C 484.833,783.836 484.5,867.169 483.5,950.5C 474.392,926.283 464.725,902.283 454.5,878.5C 312.155,856.267 210.322,780.267 149,650.5C 133.863,614.952 124.196,577.952 120,539.5C 101.574,529.912 82.4074,522.079 62.5,516C 78.0055,515.831 93.3388,515.331 108.5,514.5 Z"/></g>
<g><path style="opacity:0.982" fill="#fefffe" d="M 700.5,514.5 C 779.167,514.333 857.834,514.5 936.5,515C 916.448,521.797 896.948,529.963 878,539.5C 858.444,679.892 785.611,781.725 659.5,845C 622.464,861.733 583.798,872.9 543.5,878.5C 533.275,902.283 523.608,926.283 514.5,950.5C 513.5,867.169 513.167,783.836 513.5,700.5C 593.37,691.425 650.537,650.758 685,578.5C 693.623,558.009 698.789,536.676 700.5,514.5 Z"/></g>
</svg>
